<?xml version="1.0" encoding="UTF-8" standalone="no"?>
<!-- Created with Inkscape (http://www.inkscape.org/) -->

<svg
   width="110.52841mm"
   height="135.45238mm"
   viewBox="0 0 110.52841 135.45238"
   version="1.1"
   id="svg1"
   xml:space="preserve"
   xmlns="http://www.w3.org/2000/svg"
   xmlns:svg="http://www.w3.org/2000/svg"><defs
     id="defs1" /><g
     id="layer1"
     transform="translate(-163.68569,-35.053336)"><path
       style="fill:#000000"
       d="m 195.19904,169.86791 c -4.18149,-1.3542 -8.83291,-5.24868 -13.45141,-11.26243 -10.95686,-14.26689 -17.26786,-31.0955 -18.00899,-48.02187 -0.89236,-20.380413 9.56228,-36.956705 26.23152,-41.591213 2.42021,-0.672884 3.01812,-0.734143 7.01146,-0.718352 5.0359,0.01991 6.8193,0.399022 13.01838,2.767395 7.54696,2.883335 7.03891,2.738782 9.60349,2.732476 2.24829,-0.0055 2.59547,-0.0882 6.21771,-1.480561 8.92525,-3.430802 11.78616,-4.166048 16.97729,-4.363118 3.01194,-0.114342 4.46274,-0.04543 6.48229,0.307912 5.17272,0.905018 10.00222,2.748661 13.64997,5.21082 2.62454,1.771509 6.08924,5.288932 7.41476,7.527583 0.0998,0.16849 -0.74233,0.945546 -2.00157,1.846986 -4.25923,3.049012 -7.87112,7.289999 -9.84252,11.556839 -2.42966,5.25869 -3.10113,12.071423 -1.84329,18.702203 1.6697,8.80194 6.85042,15.5283 15.78295,20.49172 l 1.77302,0.98519 -0.80425,2.29956 c -1.74793,4.99783 -5.15153,11.57772 -8.78533,16.98393 -6.135,9.1274 -9.75708,12.98081 -14.06478,14.96307 -2.36013,1.08605 -4.07892,1.44156 -6.95833,1.43925 -2.93412,-0.002 -5.43322,-0.60383 -10.77871,-2.59415 -6.45363,-2.40292 -9.62997,-2.9615 -13.89747,-2.44395 -3.01502,0.36565 -4.05176,0.65578 -10.13693,2.83685 -7.38491,2.64694 -9.97457,2.9945 -13.58926,1.82386 z M 218.75326,63.198458 c 0.22482,-4.405931 1.03351,-7.631907 2.81145,-11.21537 4.10326,-8.270173 12.37627,-14.631498 21.53373,-16.55783 3.03757,-0.638972 2.83162,-0.828082 2.82762,2.596374 -0.009,8.072591 -3.35068,15.328486 -9.9713,21.653792 -4.60746,4.401939 -8.61762,6.224366 -14.34322,6.518307 l -3.01904,0.154991 z"
       id="path2" /></g></svg>
